<svg width="200" height="200" viewBox="0 0 200 200" fill="none" xmlns="http://www.w3.org/2000/svg">
  <!-- Fondo circular -->
  <circle cx="100" cy="100" r="95" fill="#1a1a2e"/>

  <!-- Rollo de película izquierdo -->
  <circle cx="65" cy="85" r="25" fill="#e94560"/>
  <circle cx="65" cy="85" r="18" fill="#1a1a2e"/>
  <circle cx="65" cy="85" r="8" fill="#e94560"/>

  <!-- Rollo de película derecho -->
  <circle cx="135" cy="85" r="25" fill="#e94560"/>
  <circle cx="135" cy="85" r="18" fill="#1a1a2e"/>
  <circle cx="135" cy="85" r="8" fill="#e94560"/>

  <!-- Cinta de película -->
  <rect x="65" y="75" width="70" height="20" fill="#e94560"/>
  <rect x="68" y="78" width="8" height="14" fill="#1a1a2e" opacity="0.3"/>
  <rect x="80" y="78" width="8" height="14" fill="#1a1a2e" opacity="0.3"/>
  <rect x="92" y="78" width="8" height="14" fill="#1a1a2e" opacity="0.3"/>
  <rect x="104" y="78" width="8" height="14" fill="#1a1a2e" opacity="0.3"/>
  <rect x="116" y="78" width="8" height="14" fill="#1a1a2e" opacity="0.3"/>

  <!-- Play button -->
  <circle cx="100" cy="85" r="15" fill="#0f3460"/>
  <path d="M95 77 L95 93 L107 85 Z" fill="#16d9e3"/>

  <!-- Texto VIDEOCLUB -->
  <text x="100" y="140" font-family="Arial, sans-serif" font-size="22" font-weight="bold" fill="#16d9e3" text-anchor="middle">VIDEOCLUB</text>

  <!-- Decoración - estrellas -->
  <path d="M30 40 L32 46 L38 46 L33 50 L35 56 L30 52 L25 56 L27 50 L22 46 L28 46 Z" fill="#16d9e3" opacity="0.6"/>
  <path d="M170 40 L172 46 L178 46 L173 50 L175 56 L170 52 L165 56 L167 50 L162 46 L168 46 Z" fill="#16d9e3" opacity="0.6"/>

  <!-- Borde exterior -->
  <circle cx="100" cy="100" r="95" stroke="#16d9e3" stroke-width="2" fill="none"/>
</svg>
